<svg xmlns="http://www.w3.org/2000/svg" viewBox="0 0 1200 630" role="img" aria-label="Aletheia Chat — Lectura bíblica conversacional">
  <rect width="1200" height="630" fill="#0A0A0A"/>

  <!-- Icono: burbuja + libro (variante del maestro public/logo.svg) -->
  <g transform="translate(100 135) scale(0.703125)">
    <rect width="512" height="512" rx="112" fill="#151515"/>
    <path fill="#FFD600" d="M256 108c-98 0-176 62-176 138 0 44 26 83 66 108l-18 62c-2 7 5 13 11 9l72-42c14 3 29 5 45 5 98 0 176-62 176-142S354 108 256 108z"/>
    <path fill="#0A0A0A" d="M247 196c-20-13-52-18-82-11-4 1-7 4-7 9v104c0 6 6 10 12 8 26-6 53-1 70 11 3 2 7 2 10 0V199c0-1-1-2-3-3z"/>
    <path fill="#0A0A0A" d="M265 196c20-13 52-18 82-11 4 1 7 4 7 9v104c0 6-6 10-12 8-26-6-53-1-70 11-3 2-7 2-10 0V199c0-1 1-2 3-3z"/>
    <path fill="#FFFFFF" d="M256 147l7 21 21 7-21 7-7 21-7-21-21-7 21-7z"/>
  </g>

  <!-- Wordmark -->
  <text x="500" y="300" font-family="system-ui, -apple-system, sans-serif" font-size="104" font-weight="700" fill="#FFFFFF">Aletheia Chat</text>
  <text x="503" y="388" font-family="system-ui, -apple-system, sans-serif" font-size="46" fill="#FFD600">Lectura bíblica conversacional</text>

  <!-- Acento -->
  <rect x="503" y="432" width="140" height="8" rx="4" fill="#FFD600"/>
</svg>
